<svg xmlns="http://www.w3.org/2000/svg" width="6" height="10" viewBox="0 0 6 10">
  <path fill="#FFF" fill-rule="evenodd" d="M100.579587,17 L104.925202,12.8716383 C105.024933,12.7768922 105.024933,12.6232734 104.925202,12.5285597 L104.443672,12.0710677 C104.395798,12.0255546 104.330832,12 104.263107,12 C104.195382,12 104.130416,12.0255546 104.082542,12.0710677 L99.0747985,16.8284607 C98.9750672,16.9232068 98.9750672,17.0768255 99.0747985,17.1715393 L104.082508,21.9289323 C104.130382,21.9744454 104.195348,22 104.263073,22 C104.330798,22 104.395764,21.9744454 104.443638,21.9289323 L104.925167,21.4714403 C105.024899,21.3766942 105.024899,21.2230755 104.925167,21.1283617 L100.579587,17 L100.579587,17 Z" transform="matrix(1 0 0 -1 -99 22)"/>
</svg>
