<svg xmlns="http://www.w3.org/2000/svg" width="16" height="25" viewBox="0 0 16 25">
  <path fill="#7BC142" fill-rule="evenodd" d="M43.9792761,12.5 L54.9266976,2.17909569 C55.1779395,1.94223043 55.1779395,1.55818362 54.9266976,1.32139923 L53.7136342,0.177669162 C53.5930312,0.0638864988 53.429368,0 53.2587568,0 C53.0881457,0 52.9244825,0.0638864988 52.8038795,0.177669162 L40.1884314,12.0711518 C39.9371895,12.308017 39.9371895,12.6920638 40.1884314,12.9288482 L52.8037937,24.8223308 C52.9243967,24.9361135 53.0880599,25 53.258671,25 C53.4292822,25 53.5929454,24.9361135 53.7135484,24.8223308 L54.9266118,23.6786008 C55.1778537,23.4417355 55.1778537,23.0576887 54.9266118,22.8209043 L43.9792761,12.5 L43.9792761,12.5 Z" transform="rotate(-180 27.558 12.5)"/>
</svg>
