<svg xmlns="http://www.w3.org/2000/svg" width="16" height="25" viewBox="0 0 16 25">
  <path fill="#7BC142" fill-rule="evenodd" d="M3.97927612,12.5 L14.9266976,2.17909569 C15.1779395,1.94223043 15.1779395,1.55818362 14.9266976,1.32139923 L13.7136342,0.177669162 C13.5930312,0.0638864988 13.429368,0 13.2587568,0 C13.0881457,0 12.9244825,0.0638864988 12.8038795,0.177669162 L0.188431418,12.0711518 C-0.0628104727,12.308017 -0.0628104727,12.6920638 0.188431418,12.9288482 L12.8037937,24.8223308 C12.9243967,24.9361135 13.0880599,25 13.258671,25 C13.4292822,25 13.5929454,24.9361135 13.7135484,24.8223308 L14.9266118,23.6786008 C15.1778537,23.4417355 15.1778537,23.0576887 14.9266118,22.8209043 L3.97927612,12.5 L3.97927612,12.5 Z" transform="matrix(1 0 0 -1 0 25)"/>
</svg>
