<svg xmlns="http://www.w3.org/2000/svg" width="25" height="25" viewBox="0 0 25 25">
  <path fill="#7BC142" fill-rule="evenodd" d="M838.025,86.225 C838.025,89.975 834.975,93.025 831.225,93.025 C827.475,93.025 824.4,89.975 824.4,86.225 C824.4,82.45 827.45,79.4 831.225,79.4 C834.975,79.4 838.025,82.475 838.025,86.225 L838.025,86.225 Z M839.65,92 C840.825,90.325 841.45,88.275 841.45,86.225 C841.45,80.575 836.875,76 831.225,76 C825.575,76 821,80.575 821,86.225 C821,91.875 825.575,96.45 831.225,96.45 C833.275,96.45 835.325,95.8 837.025,94.65 L843.375,101 L846,98.375 L839.65,92 Z" transform="translate(-821 -76)"/>
</svg>
