<svg xmlns="http://www.w3.org/2000/svg" width="184" height="54" viewBox="0 0 184 54">
  <g fill="none" fill-rule="evenodd">
    <path fill="#E8771D" d="M19.305074 53.5458995C15.105214 43.1867882 13.6243473 32.4617511 13.6243473 21.3971473 13.6243473 16.6277076 13.9266273 11.8489648 14.7082807 7.14464751L18.7157807 7.14464751C17.747874 11.6194859 17.4471207 16.2075132 17.4471207 20.7769341 17.4471207 30.3793852 18.6196007 40.5896454 21.356914 49.8401255 24.091174 40.5896454 25.2651807 30.3793852 25.2651807 20.7769341 25.2651807 16.2075132 24.9644273 11.6194859 23.9965207 7.14464751L28.002494 7.14464751C28.7872007 11.8489648 29.0849007 16.6277076 29.0849007 21.3971473 29.0849007 32.4617511 27.6070873 43.1867882 23.4072273 53.5458995L19.305074 53.5458995zM7.06197067 18.5635481C6.70015067 18.2301835 6.13833733 18.2565426 5.80705067 18.6255695 5.475764 18.9945963 5.503244 19.5651925 5.86353733 19.9016582 6.22841067 20.2381238 6.790224 20.2102142 7.12151067 19.8427379 7.45127067 19.4721605 7.42531733 18.9015643 7.06197067 18.5635481M7.06197067 21.3692377C6.70015067 21.0343226 6.13833733 21.0622322 5.80705067 21.431259 5.475764 21.8002859 5.503244 22.370882 5.86353733 22.7073477 6.22841067 23.0438134 6.790224 23.0159038 7.12151067 22.6484275 7.45127067 22.2778501 7.42531733 21.7072539 7.06197067 21.3692377M5.180354 23.5584353C4.81700733 23.2219696 4.25672067 23.2498792 3.925434 23.6189061 3.59262067 23.9894835 3.62010067 24.5585291 3.98192067 24.8949948 4.34526733 25.2314605 4.905554 25.2051014 5.239894 24.8360745 5.56812733 24.4670477 5.54370067 23.894901 5.180354 23.5584353M7.62256267 30.8769513C7.26074267 30.5420362 6.69892933 30.5683952 6.36764267 30.9374221 6.036356 31.306449 6.063836 31.8785957 6.42412933 32.2150613 6.78900267 32.5499765 7.350816 32.5236174 7.68210267 32.1545905 8.01186267 31.7855637 7.98590933 31.213417 7.62256267 30.8769513M7.71797933 33.7175278C7.339366 33.4012191 6.77907933 33.4570383 6.46763933 33.843121 6.15467267 34.2292038 6.20963267 34.7982494 6.588246 35.1145581 6.96991267 35.4324174 7.527146 35.3750477 7.84011267 34.9905155 8.150026 34.6044328 8.09659267 34.0353871 7.71797933 33.7175278M5.91697067 35.9937104C5.535304 35.6836038 4.97501733 35.7487261 4.669684 36.1379099 4.362824 36.5301948 4.42541733 37.0961394 4.807084 37.4077965 5.19333067 37.7194536 5.75361733 37.6543313 6.05895067 37.2635969 6.364284 36.8728626 6.30169067 36.3053675 5.91697067 35.9937104M5.73804533 29.1281051C5.37622533 28.7931899 4.814412 28.8210995 4.48312533 29.1901264 4.15183867 29.5607038 4.17931867 30.1297494 4.54113867 30.4662151 4.90448533 30.8026808 5.46629867 30.7747712 5.79758533 30.4057443 6.128872 30.0367174 6.101392 29.4661213 5.73804533 29.1281051M9.44143333 43.0737544C9.03992 42.7838047 8.48726667 42.8799377 8.20178 43.2877279 7.91476667 43.6924171 8.00942 44.2568111 8.40788 44.5483113 8.80939333 44.8367104 9.36357333 44.7405774 9.65058667 44.3343377 9.93302 43.9296486 9.84142 43.3637041 9.44143333 43.0737544M9.65012867 46.2149793C9.240982 45.9374339 8.68985533 46.0506228 8.41505533 46.4646151 8.141782 46.8786074 8.251702 47.4399004 8.66084867 47.7174458 9.06846867 47.9949912 9.61959533 47.8833528 9.89439533 47.46781 10.166142 47.0538177 10.0592753 46.4925247 9.65012867 46.2149793M7.34226667 41.5486501C6.94228 41.2587004 6.3881 41.356384 6.10261333 41.7626236 5.81865333 42.1704138 5.91178 42.7332573 6.31329333 43.0216565 6.71328 43.3116061 7.26746 43.2154731 7.55447333 42.8092334 7.83690667 42.4014432 7.74530667 41.8370492 7.34226667 41.5486501M3.04256267 14.3260964C2.82730267 13.8779923 2.29754933 13.6903778 1.854816 13.909003 1.41208267 14.1260776 1.227356 14.6672136 1.44108933 15.1153177 1.65634933 15.5649723 2.18610267 15.7525868 2.63036267 15.5339616 3.073096 15.3153365 3.25782267 14.7742004 3.04256267 14.3260964M2.3119 11.5142047C2.28594667 11.0164836 1.87069333 10.6335019 1.37910667 10.6567599.88752 10.6815684.508906667 11.104864.53486 11.6025851.559286667 12.1034072.976066667 12.4848384 1.4646 12.4615804 1.95771333 12.4352213 2.33632667 12.0134763 2.3119 11.5142047M2.41937733 8.29886431C2.512504 7.80889586 2.19495733 7.33753382 1.70947733 7.2429513 1.22705067 7.15146985.761417333 7.47243019.671344 7.96239864.579744 8.45391761.895764 8.92372913 1.37971733 9.01831164 1.86367067 9.10979309 2.32625067 8.78883275 2.41937733 8.29886431M3.40178733 5.41735369C3.64910733 4.98785603 3.50712733 4.43431574 3.08118733 4.18157885 2.65830067 3.93039249 2.111754 4.07459207 1.864434 4.50408972 1.617114 4.93668844 1.76062067 5.48712768 2.18350733 5.73986456 2.606394 5.99260145 3.151414 5.84840188 3.40178733 5.41735369M4.840518 16.4723442C4.47717133 16.1374291 3.91688467 16.1637881 3.58254467 16.532815 3.251258 16.9018419 3.278738 17.472438 3.64208467 17.8089037 4.00543133 18.1453694 4.565718 18.1174598 4.89700467 17.7499835 5.22829133 17.3794061 5.202338 16.8088099 4.840518 16.4723442"/>
    <path fill="#E8771D" d="M8.40070467 2.74656051C8.683138 2.43335284 9.16098467 2.41164537 9.470898 2.69694345 9.77928467 2.98224154 9.80218467 3.46910891 9.51822467 3.78386712 9.237318 4.0970748 8.75794467 4.12033279 8.44803133 3.83348418 8.13964467 3.54663557 8.11674467 3.06131872 8.40070467 2.74656051M15.5546647 42.9565341L10.473918 39.3205341C10.0678247 38.9902705 10.002178 38.3886637 10.327358 37.9777725L13.7241913 33.9401844C14.426458 33.1571652 14.371498 31.9461989 13.6005313 31.2314032L9.34571133 27.2961503C8.96404467 26.9410782 8.93656467 26.3363703 9.28617133 25.9471865L13.1639047 21.628952C13.8661713 20.8474833 13.812738 19.6349665 13.0417713 18.9217213L7.409898 13.6948744C6.640458 12.9831797 6.65725133 11.8249315 7.286238 10.9891942L13.1501647 3.03806072C13.725718 2.2720974 13.6906047 1.3758893 13.047878.782035139 12.727278.484332793 12.095238.138563923 10.9380247.2641571 5.40691133.868864989 1.69711133 5.79335795 2.30930467 11.4884658 2.614638 14.3476488 3.617658 15.3756522 4.17031133 15.8857776L8.41139133 19.8179294C8.79611133 20.174552 8.82359133 20.7777093 8.472458 21.1668931L4.59625133 25.4851277C3.89551133 26.2681469 3.94894467 27.4791132 4.71838467 28.1923584L8.971678 32.1307123C9.356398 32.4857844 9.383878 33.0904923 9.03274467 33.4796761L5.619118 37.8242697C4.968758 38.6507038 5.10005133 39.855468 5.91376467 40.5175456L11.0021447 44.2047132C11.412818 44.5303251 11.4845713 45.1303814 11.1624447 45.5459243L8.97015133 48.8733682C8.36406467 49.733914 8.559478 50.9309255 9.40525133 51.5480377 10.2525513 52.1635993 11.431138 51.9666816 12.0387513 51.1045852L15.8752647 45.6467089C16.5164647 44.8125221 16.3744847 43.610859 15.5546647 42.9565341M35.6779633 18.5635481C36.04131 18.2301835 36.6015967 18.2565426 36.93441 18.6255695 37.2656967 18.9945963 37.2382167 19.5651925 36.8763967 19.9016582 36.51305 20.2381238 35.9512367 20.2102142 35.6184233 19.8427379 35.29019 19.4721605 35.3146167 18.9015643 35.6779633 18.5635481M35.6779633 21.3692377C36.04131 21.0343226 36.6015967 21.0622322 36.93441 21.431259 37.2656967 21.8002859 37.2382167 22.370882 36.8763967 22.7073477 36.51305 23.0438134 35.9512367 23.0159038 35.6184233 22.6484275 35.29019 22.2778501 35.3146167 21.7072539 35.6779633 21.3692377M37.5594273 23.5584353C37.922774 23.2219696 38.4830607 23.2498792 38.815874 23.6189061 39.1471607 23.9894835 39.1212073 24.5585291 38.7578607 24.8949948 38.394514 25.2314605 37.8342273 25.2051014 37.501414 24.8360745 37.171654 24.4670477 37.1976073 23.894901 37.5594273 23.5584353M35.1173713 30.8769513C35.480718 30.5420362 36.0410047 30.5683952 36.3722913 30.9374221 36.7051047 31.306449 36.6776247 31.8785957 36.3158047 32.2150613 35.952458 32.5499765 35.3906447 32.5236174 35.0578313 32.1545905 34.729598 31.7855637 34.7540247 31.213417 35.1173713 30.8769513M35.0219547 33.7175278C35.4020947 33.4012191 35.9608547 33.4570383 36.2738213 33.843121 36.5852613 34.2292038 36.531828 34.7982494 36.151688 35.1145581 35.771548 35.4324174 35.212788 35.3750477 34.8998213 34.9905155 34.589908 34.6044328 34.6433413 34.0353871 35.0219547 33.7175278M36.8229633 35.9937104C37.2061567 35.6836038 37.7649167 35.7487261 38.0717767 36.1379099 38.3786367 36.5301948 38.3160433 37.0961394 37.93285 37.4077965 37.54813 37.7194536 36.9878433 37.6543313 36.68251 37.2635969 36.37565 36.8728626 36.4382433 36.3053675 36.8229633 35.9937104M37.0018887 29.1281051C37.3652353 28.7931899 37.925522 28.8210995 38.2568087 29.1901264 38.5880953 29.5607038 38.562142 30.1297494 38.1987953 30.4662151 37.8354487 30.8026808 37.2736353 30.7747712 36.9423487 30.4057443 36.6141153 30.0367174 36.638542 29.4661213 37.0018887 29.1281051M33.3000273 43.0737544C33.700014 42.7838047 34.2526673 42.8799377 34.5396807 43.2877279 34.8251673 43.6924171 34.7320407 44.2568111 34.332054 44.5483113 33.9305407 44.8367104 33.3763607 44.7405774 33.0893473 44.3343377 32.8084407 43.9296486 32.898514 43.3637041 33.3000273 43.0737544M33.0898053 46.2149793C33.5004787 45.9374339 34.0500787 46.0506228 34.3248787 46.4646151 34.598152 46.8786074 34.488232 47.4399004 34.0790853 47.7174458 33.6714653 47.9949912 33.1203387 47.8833528 32.8470653 47.46781 32.573792 47.0538177 32.6806587 46.4925247 33.0898053 46.2149793M35.3976673 41.5486501C35.797654 41.2587004 36.351834 41.356384 36.6373207 41.7626236 36.9212807 42.1704138 36.828154 42.7332573 36.4266407 43.0216565 36.026654 43.3116061 35.472474 43.2154731 35.1854607 42.8092334 34.904554 42.4014432 34.996154 41.8370492 35.3976673 41.5486501M39.6973713 14.3260964C39.9126313 13.8779923 40.4439113 13.6903778 40.8866447 13.909003 41.3278513 14.1260776 41.5141047 14.6672136 41.2988447 15.1153177 41.0835847 15.5649723 40.5538313 15.7525868 40.111098 15.5339616 39.666838 15.3153365 39.4821113 14.7742004 39.6973713 14.3260964M40.4278813 11.5142047C40.4538347 11.0164836 40.869088 10.6335019 41.3606747 10.6567599 41.853788 10.6815684 42.2324013 11.104864 42.206448 11.6025851 42.1820213 12.1034072 41.7652413 12.4848384 41.2751813 12.4615804 40.7835947 12.4352213 40.4049813 12.0134763 40.4278813 11.5142047M40.3205567 8.29886431C40.22743 7.80889586 40.5465033 7.33753382 41.0304567 7.2429513 41.5128833 7.15146985 41.9785167 7.47243019 42.0701167 7.96239864 42.1617167 8.45391761 41.84417 8.92372913 41.3617433 9.01831164 40.87779 9.10979309 40.4136833 8.78883275 40.3205567 8.29886431M39.3395207 5.41735369C39.0922007 4.98785603 39.2357073 4.43431574 39.658594 4.18157885 40.0814807 3.93039249 40.6280273 4.07459207 40.8753473 4.50408972 41.124194 4.93668844 40.9806873 5.48712768 40.556274 5.73986456 40.1333873 5.99260145 39.5883673 5.84840188 39.3395207 5.41735369M37.9009427 16.4723442C38.2642893 16.1374291 38.8261027 16.1637881 39.1573893 16.532815 39.488676 16.9018419 39.461196 17.472438 39.0978493 17.8089037 38.7360293 18.1453694 38.174216 18.1174598 37.8429293 17.7499835 37.5116427 17.3794061 37.5391227 16.8088099 37.9009427 16.4723442"/>
    <path fill="#E8771D" d="M34.2914447,3.83348418 C33.9815313,4.12033279 33.502158,4.0970748 33.2212513,3.78386712 C32.9372913,3.46910891 32.961718,2.98224154 33.2701047,2.69694345 C33.5784913,2.41164537 34.0593913,2.43335284 34.340298,2.74656051 C34.6227313,3.06131872 34.5998313,3.54663557 34.2914447,3.83348418 M31.802978,0.2641571 C30.644238,0.138563923 30.012198,0.484332793 29.6931247,0.782035139 C29.0488713,1.3758893 29.013758,2.2720974 29.590838,3.03806072 L35.4547647,10.9891942 C36.0822247,11.8249315 36.1020713,12.9831797 35.3326313,13.6948744 L29.6977047,18.9217213 C28.926738,19.6349665 28.871778,20.8474833 29.5740447,21.6305025 L33.4548313,25.9471865 C33.8059647,26.3363703 33.776958,26.9426287 33.3937647,27.2961503 L29.1389447,31.2314032 C28.367978,31.9461989 28.313018,33.1571652 29.0168113,33.9401844 L32.4136447,37.9777725 C32.737298,38.3886637 32.6716513,38.9902705 32.265558,39.3205341 L27.186338,42.9565341 C26.366518,43.610859 26.2230113,44.8125221 26.865738,45.6467089 L30.7007247,51.1061358 C31.3098647,51.9666816 32.4869247,52.1635993 33.3342247,51.5480377 C34.1815247,50.9309255 34.3784647,49.733914 33.7693247,48.8733682 L31.578558,45.5459243 C31.2564313,45.1303814 31.3281847,44.5303251 31.738858,44.2047132 L36.8257113,40.5175456 C37.6394247,39.855468 37.770718,38.6507038 37.1218847,37.8242697 L33.7067313,33.4796761 C33.3586513,33.0904923 33.3846047,32.4857844 33.7693247,32.1307123 L38.0210913,28.1923584 C38.7905313,27.4791132 38.8439647,26.2681469 38.1432247,25.4851277 L34.267018,21.1668931 C33.9174113,20.7777093 33.9448913,20.174552 34.3280847,19.8194799 L38.5706913,15.8857776 C39.121818,15.3756522 40.1263647,14.3476488 40.4332247,11.4884658 C41.0438913,5.79335795 37.3325647,0.868864989 31.802978,0.2641571"/>
    <path fill="#404727" d="M107.616832,11.8398704 L107.616832,1.89320085 L110.343459,1.89320085 C111.079312,1.89320085 111.725092,1.9753791 112.256372,2.09011855 C112.793759,2.22346439 113.270079,2.41573049 113.645639,2.68242217 C114.277679,3.11191983 114.770792,3.71352665 115.128032,4.44382772 C115.492905,5.17722985 115.660839,5.98815864 115.660839,6.87506354 C115.660839,7.74491258 115.492905,8.5527403 115.128032,9.31095096 C114.770792,10.0443531 114.277679,10.6242525 113.645639,11.0692554 C113.270079,11.3374977 112.793759,11.5313143 112.256372,11.6662107 C111.725092,11.7809501 111.079312,11.8398704 110.343459,11.8398704 L107.616832,11.8398704 Z M112.754065,12.3934107 C113.387632,12.222852 113.932652,11.9546098 114.404392,11.5840324 C115.115819,11.0459974 115.660839,10.3730661 116.056245,9.54198038 C116.460812,8.7124452 116.651645,7.80073177 116.651645,6.85645714 C116.651645,5.90908145 116.460812,5.02062601 116.056245,4.1709339 C115.660839,3.34294925 115.115819,2.66691684 114.404392,2.12888188 C113.932652,1.75985501 113.387632,1.48851173 112.770859,1.31795309 C112.161719,1.16600085 111.442659,1.0652162 110.567879,1.0652162 L106.671825,1.0652162 L106.671825,12.6647539 L110.567879,12.6647539 C111.421285,12.6647539 112.149505,12.5686209 112.754065,12.3934107 L112.754065,12.3934107 Z M96.4202587,8.05036759 L98.4995787,3.03594371 L100.551419,8.05036759 L96.4202587,8.05036759 Z M98.305692,1.50711812 L93.611192,12.6647539 L94.5241387,12.6647539 L96.1225587,8.80547719 L100.847592,8.80547719 L102.452119,12.6647539 L103.365065,12.6647539 L98.6690387,1.50711812 L98.305692,1.50711812 Z M82.8726187,11.8398704 L82.8726187,1.89320085 L85.5900854,1.89320085 C86.3305187,1.89320085 86.974772,1.9753791 87.5029987,2.09011855 C88.0449654,2.22346439 88.5151787,2.41573049 88.8953187,2.68242217 C89.525832,3.11191983 90.0189454,3.71352665 90.3853454,4.44382772 C90.739532,5.17722985 90.9105187,5.98815864 90.9105187,6.87506354 C90.9105187,7.74491258 90.739532,8.5527403 90.3853454,9.31095096 C90.0189454,10.0443531 89.525832,10.6242525 88.8953187,11.0692554 C88.5151787,11.3374977 88.0449654,11.5313143 87.5029987,11.6662107 C86.974772,11.7809501 86.3305187,11.8398704 85.5900854,11.8398704 L82.8726187,11.8398704 Z M88.0022187,12.3934107 C88.628152,12.222852 89.1624854,11.9546098 89.658652,11.5840324 C90.363972,11.0459974 90.9105187,10.3730661 91.312032,9.54198038 C91.7120187,8.7124452 91.8967454,7.80073177 91.8967454,6.85645714 C91.8967454,5.90908145 91.7120187,5.02062601 91.312032,4.1709339 C90.9105187,3.34294925 90.363972,2.66691684 89.658652,2.12888188 C89.1624854,1.75985501 88.628152,1.48851173 88.0174854,1.31795309 C87.4159787,1.16600085 86.6938654,1.0652162 85.820612,1.0652162 L81.9031854,1.0652162 L81.9031854,12.6647539 L85.820612,12.6647539 C86.672492,12.6647539 87.3930787,12.5686209 88.0022187,12.3934107 L88.0022187,12.3934107 Z M76.715572,12.6663045 L77.6788987,12.6663045 L77.6788987,1.0652162 L76.715572,1.0652162 L76.715572,12.6663045 Z M73.0759987,9.65361876 C73.0759987,9.2706371 73.0088254,8.9047113 72.8973787,8.5527403 C72.7599787,8.20697143 72.575252,7.89686482 72.3401454,7.63017313 C71.9813787,7.22393348 71.2714787,6.80218849 70.2470854,6.37424136 C70.1356387,6.31842217 70.060832,6.29361365 70.0043454,6.25485032 C69.0684987,5.85171173 68.4654654,5.50594286 68.1982987,5.17722985 C67.9112854,4.87177484 67.7769387,4.44382772 67.7769387,3.94300554 C67.7769387,3.32124179 67.9830387,2.80181322 68.421192,2.37696716 C68.8593454,1.9753791 69.4119987,1.75985501 70.0913654,1.75985501 C70.5111987,1.75985501 70.9340854,1.83583113 71.3493387,1.98778337 C71.7935987,2.14283667 72.2256454,2.39867463 72.7019654,2.72428657 L72.7019654,1.68387889 C72.2653387,1.431142 71.847032,1.23887591 71.4271987,1.10397953 C71.008892,0.992341151 70.573792,0.908612367 70.1356387,0.908612367 C69.1646787,0.908612367 68.3860787,1.20011258 67.7769387,1.78001194 C67.166272,2.35836077 66.8655187,3.09486397 66.8655187,3.97556674 C66.8655187,4.7105194 67.056352,5.31367676 67.4578654,5.77728614 C67.8547987,6.23934499 68.5937054,6.7045049 69.6791654,7.15881109 C70.7264587,7.6100162 71.3905587,7.99609893 71.6790987,8.32171087 C71.9813787,8.67058081 72.108092,9.09852793 72.108092,9.61950704 C72.108092,10.3327522 71.906572,10.8893936 71.4638387,11.3126891 C71.0516387,11.7220299 70.4562387,11.9344529 69.7188587,11.9344529 C69.2807054,11.9344529 68.801332,11.8166124 68.3463854,11.6196947 C67.8547987,11.4150243 67.3601587,11.1033672 66.8288787,10.6785211 L66.8288787,11.7964554 C67.321992,12.1484264 67.7952587,12.3934107 68.274632,12.5686209 C68.764692,12.737629 69.2440654,12.8198072 69.7371787,12.8198072 C70.711192,12.8198072 71.503532,12.5376102 72.1325187,11.9344529 C72.7599787,11.3374977 73.0759987,10.5823881 73.0759987,9.65361876 L73.0759987,9.65361876 Z M56.888752,1.85908913 L58.7863987,1.85908913 C59.6398054,1.85908913 60.287112,2.02964776 60.763432,2.41573049 C61.2183787,2.78475736 61.4443254,3.30418593 61.4443254,3.97556674 C61.4443254,4.46398465 61.354252,4.8841791 61.1466254,5.21909424 C60.9344187,5.56796418 60.630612,5.81604947 60.209252,6.0005629 C59.9863587,6.10289808 59.7161387,6.18042473 59.375692,6.23934499 C59.0260854,6.27345672 58.4383187,6.29361365 57.5910187,6.29361365 L56.888752,6.29361365 L56.888752,1.85908913 Z M56.888752,7.08748657 L57.8078054,7.08748657 C58.4627454,7.08748657 58.945172,7.14485629 59.261192,7.22393348 C59.586372,7.29680853 59.852012,7.45806397 60.0657454,7.66583539 C60.209252,7.82243923 60.4031387,8.07207505 60.6657254,8.43955139 C60.914572,8.78842132 61.2366987,9.25048017 61.578672,9.8148742 L63.3847187,12.6647539 L64.409112,12.6647539 L61.2916587,7.78522644 C61.1603654,7.57280341 61.006172,7.37743625 60.859612,7.22393348 C60.6870987,7.06888017 60.4947387,6.93243326 60.287112,6.80218849 C61.006172,6.56650746 61.5481387,6.21608699 61.903852,5.73542175 C62.2671987,5.2687113 62.4366587,4.67330661 62.4366587,3.97556674 C62.4366587,3.03594371 62.1297987,2.31804691 61.487072,1.81722473 C60.8351854,1.31795309 59.9268187,1.0652162 58.7329654,1.0652162 L55.991072,1.0652162 L55.991072,12.6647539 L56.888752,12.6647539 L56.888752,7.08748657 Z M51.9621987,11.8724316 L46.6219187,11.8724316 L46.6219187,7.15881109 L51.6568654,7.15881109 L51.6568654,6.41610576 L46.6219187,6.41610576 L46.6219187,1.81722473 L51.8309054,1.81722473 L51.8309054,1.0652162 L45.7074454,1.0652162 L45.7074454,12.6647539 L51.9621987,12.6647539 L51.9621987,11.8724316 Z M38.2008254,12.85702 L42.993032,1.0652162 L42.022072,1.0652162 L38.1229654,10.7994627 L34.2696587,1.0652162 L33.2574787,1.0652162 L38.064952,12.85702 L38.2008254,12.85702 Z M29.0209787,12.6647539 L29.9919387,12.6647539 L29.9919387,1.0652162 L29.0209787,1.0652162 L29.0209787,12.6647539 Z M15.673332,2.24362132 L24.0379387,12.4926448 L24.8760787,12.4926448 L24.8760787,0.908612367 L23.9753454,0.908612367 L23.9753454,11.0025825 L15.7114987,0.908612367 L14.761912,0.908612367 L14.761912,12.4926448 L15.673332,12.4926448 L15.673332,2.24362132 Z M5.35153869,13.6912068 C6.98507202,13.6912068 8.28121202,13.1655761 9.23843202,12.12982 C10.1788587,11.0863113 10.676552,9.67532623 10.676552,7.91702175 L10.676552,0.251186354 L9.58803869,0.251186354 L9.58803869,7.97749254 C9.58803869,9.38537655 9.20637202,10.5033109 8.45677869,11.3374977 C7.67207202,12.1654823 6.64462536,12.5934294 5.35153869,12.5934294 C4.05997869,12.5934294 3.03100536,12.1654823 2.27072536,11.3374977 C1.49212536,10.5033109 1.10740536,9.38537655 1.10740536,7.97749254 L1.10740536,0.251186354 L0.0707986916,0.251186354 L0.0707986916,7.91702175 C0.0707986916,9.69238209 0.539485358,11.1033672 1.49212536,12.12982 C2.44323869,13.1655761 3.73785202,13.6912068 5.35153869,13.6912068 L5.35153869,13.6912068 Z M64.848792,31.2556452 C64.5266654,32.0123053 64.0915654,32.6883377 63.4992187,33.2713382 C62.8916054,33.8667429 62.2046054,34.3350038 61.4656987,34.6187514 C60.6870987,34.9242064 59.8871254,35.0823608 59.0108187,35.0823608 C58.1589387,35.0823608 57.3589654,34.9242064 56.5757854,34.6187514 C55.8017654,34.2915889 55.1376654,33.8434849 54.5498987,33.2713382 C53.9606054,32.6883377 53.5010787,32.0123053 53.197272,31.2556452 C52.8751454,30.5098388 52.7224787,29.7330217 52.7224787,28.8848802 C52.7224787,28.0568955 52.8751454,27.2614721 53.197272,26.4893066 C53.5209254,25.7372981 53.9606054,25.0829731 54.5498987,24.5030738 C55.171252,23.9200733 55.862832,23.4611156 56.632272,23.1324026 C57.3956054,22.8191949 58.194052,22.6656921 59.0108187,22.6656921 C59.870332,22.6656921 60.6657254,22.8191949 61.4244787,23.1324026 C62.1893387,23.4378576 62.8687054,23.9030175 63.465632,24.5030738 C64.0915654,25.1186354 64.5480387,25.7931173 64.867112,26.5482269 C65.1678654,27.2800785 65.3220587,28.0568955 65.3220587,28.8848802 C65.3220587,29.7330217 65.1678654,30.5098388 64.848792,31.2556452 L64.848792,31.2556452 Z M66.0289054,22.1431625 C65.096112,21.2423028 64.0304987,20.5647198 62.838172,20.0825041 C61.6183654,19.6173441 60.3497054,19.3692588 59.0108187,19.3692588 C57.7024654,19.3692588 56.4521254,19.6173441 55.2506387,20.0825041 C54.0522054,20.5445629 52.9667454,21.2423028 52.043112,22.1431625 C51.108792,23.014562 50.3882054,24.0394644 49.8706654,25.2008136 C49.377552,26.3559608 49.1134387,27.5715787 49.1134387,28.805803 C49.1134387,30.1004981 49.359232,31.3564299 49.8523454,32.514678 C50.3454587,33.6729262 51.072152,34.716435 52.043112,35.6405527 C52.9484254,36.5088512 54.017092,37.2096921 55.2323187,37.6872563 C56.4292254,38.1508657 57.7024654,38.3974004 59.0108187,38.3974004 C60.3497054,38.3974004 61.6183654,38.1679215 62.815272,37.7043122 C64.0137054,37.2282985 65.0762654,36.5507156 66.048752,35.6405527 C66.983072,34.7520972 67.6853387,33.7256443 68.1982987,32.5922047 C68.6944654,31.435507 68.9372054,30.2152375 68.9372054,28.9577552 C68.9372054,27.6289484 68.6944654,26.3931736 68.215092,25.2581834 C67.7143454,24.0952836 66.983072,23.0517748 66.0289054,22.1431625 L66.0289054,22.1431625 Z M125.239145,34.9691719 L125.239145,30.3873467 L133.907559,30.3873467 L133.907559,27.1870465 L125.239145,27.1870465 L125.239145,22.7850832 L134.177779,22.7850832 L134.177779,19.6018388 L121.575145,19.6018388 L121.575145,38.1508657 L134.464792,38.1508657 L134.464792,34.9691719 L125.239145,34.9691719 Z M116.019605,30.9889535 C116.001285,32.182864 115.627252,33.0728699 114.784532,33.7814635 C113.970819,34.4807539 112.865512,34.8745893 111.421285,34.8745893 C110.567879,34.8745893 109.828972,34.716435 109.198459,34.4481928 C108.549625,34.1737484 108.001552,33.7489023 107.523705,33.192261 C107.285545,32.9007608 107.106925,32.5565424 107.016852,32.1456512 C106.903879,31.7440631 106.839759,30.9687966 106.839759,29.8477612 L106.839759,19.51811 L103.439872,19.51811 L103.439872,29.9500964 C103.439872,31.3750362 103.532999,32.4371514 103.746732,33.192261 C103.954359,33.9287642 104.291752,34.6016955 104.786392,35.1955497 C105.571099,36.1832392 106.519159,36.9166414 107.658052,37.4345194 C108.784732,37.9368921 110.051865,38.189629 111.421285,38.189629 C113.734185,38.189629 115.680685,37.5353041 117.164605,36.2235531 C118.666845,34.9242064 119.427125,33.1534977 119.401172,31.0664802 L119.401172,19.51811 L116.019605,19.51811 L116.019605,30.9889535 Z M97.8721187,31.2432409 C97.5469387,32.0123053 97.110312,32.7084947 96.5179654,33.288394 L96.4996454,33.3054499 C95.8905054,33.94582 95.2065587,34.4032273 94.467652,34.7334908 C93.702792,35.0435974 92.9089254,35.211055 92.072312,35.211055 C91.2356987,35.211055 90.450992,35.0435974 89.6754454,34.716435 C88.8953187,34.3706661 88.2327454,33.9055062 87.6358187,33.3054499 L87.6358187,33.288394 C87.0511054,32.7084947 86.599212,32.0123053 86.2954054,31.2432409 C85.967172,30.4679744 85.820612,29.6601467 85.820612,28.805803 C85.820612,27.9421561 85.967172,27.1281262 86.2954054,26.3404554 C86.599212,25.5667394 87.0511054,24.890707 87.625132,24.3046055 C88.2510654,23.6890439 88.930432,23.2269851 89.699872,22.9013731 C90.478472,22.5680085 91.2555454,22.4191574 92.072312,22.4191574 C92.9089254,22.4191574 93.702792,22.5680085 94.467652,22.9013731 C95.2248787,23.2083787 95.8905054,23.6735386 96.4889587,24.2875497 C97.110312,24.9263693 97.5622054,25.617907 97.8721187,26.3931736 C98.1942454,27.1451821 98.3453854,27.9421561 98.3453854,28.805803 C98.3453854,29.6601467 98.1942454,30.4679744 97.8721187,31.2432409 L97.8721187,31.2432409 Z M99.885792,35.1009672 C101.256739,33.4387957 101.940685,31.4758209 101.940685,29.2570081 C101.940685,27.9002917 101.687259,26.6226525 101.215519,25.4442473 C100.725459,24.2875497 99.9987654,23.2269851 99.047652,22.2827104 C98.1377587,21.3740981 97.0675654,20.6593023 95.873712,20.1786371 C94.655432,19.6933203 93.405092,19.4467855 92.072312,19.4467855 C90.762432,19.4467855 89.5059854,19.6933203 88.312132,20.1786371 C87.125912,20.6593023 86.063352,21.3539412 85.110712,22.2827104 C84.2008187,23.1882217 83.4771787,24.2317305 82.990172,25.4085851 C82.4695787,26.6071471 82.220732,27.8181134 82.220732,29.0802473 C82.220732,31.3750362 82.9092587,33.4186388 84.2618854,35.1459326 C85.5900854,36.8577211 87.368652,37.9958124 89.5410987,38.5540043 C91.160892,39.7169041 92.6799254,40.6053595 94.1210987,41.2162695 C95.612652,41.8550891 96.963752,42.1651957 98.1942454,42.1651957 L98.553012,42.1651957 C98.6690387,42.1651957 98.763692,42.154342 98.8522387,42.1341851 L98.997272,42.1124776 L101.707105,39.6967471 L101.501005,39.1152972 L101.351392,38.7493714 L100.994152,38.8299991 C100.643019,38.9059753 100.343792,38.9447386 100.055252,38.9772998 C99.7865587,39.0253663 99.5453454,39.0253663 99.3102387,39.0253663 C98.6094987,39.0253663 97.8721187,38.9214806 97.091992,38.730765 C96.6141454,38.5927676 96.0645454,38.3974004 95.4813587,38.1679215 C97.2645054,37.4965407 98.763692,36.4902448 99.885792,35.1009672 L99.885792,35.1009672 Z M76.880452,27.2444162 L76.880452,27.2444162 L76.4880987,27.0273416 C75.4408054,26.41178 74.6759454,25.8489365 74.182832,25.3698217 C73.935512,25.1186354 73.7675787,24.9077629 73.6729254,24.7185979 C73.5538454,24.5263318 73.5202587,24.3867838 73.5202587,24.2720443 C73.537052,23.8068844 73.6851387,23.4936768 74.104972,23.1882217 C74.5278587,22.8796657 75.075932,22.7075565 75.817892,22.7075565 C76.4468787,22.7075565 77.0575454,22.8191949 77.6788987,23.0719318 C78.3109387,23.3432751 79.0116787,23.7510652 79.7719587,24.349571 L80.5108654,24.9077629 L80.5108654,20.9104887 L80.2894987,20.7740418 C79.5673854,20.3724537 78.8422187,20.0623471 78.117052,19.8499241 C77.3949387,19.6561075 76.674352,19.538267 75.9262854,19.538267 C74.2820654,19.538267 72.8698987,20.0049774 71.7722254,20.9306456 C70.6867654,21.8578644 70.115792,23.1106951 70.115792,24.5557919 C70.115792,25.6055028 70.404332,26.5296205 70.9890454,27.3002354 C71.3172787,27.7080256 71.7935987,28.1297706 72.437852,28.6119864 C73.101952,29.1205612 73.9523054,29.6772026 74.9828054,30.3206738 C75.6316387,30.6974533 76.1537587,31.0478738 76.5583254,31.339374 C76.9644187,31.6308742 77.246852,31.8789595 77.3811987,32.0309117 C77.6621054,32.3782311 77.768972,32.7255505 77.7995054,33.192261 C77.768972,33.7489023 77.6025654,34.0977723 77.187312,34.4233842 C76.788852,34.7334908 76.179712,34.9242064 75.3446254,34.9242064 C74.567552,34.9242064 73.8423854,34.7520972 73.1553854,34.387722 C72.479072,34.035751 71.732532,33.4186388 70.9340854,32.5766994 L70.1356387,31.6990977 L70.1356387,36.3382925 L70.3325787,36.4700878 C71.0836987,37.0685936 71.8806187,37.5135966 72.7248654,37.7818388 C73.573692,38.0826422 74.508012,38.2144375 75.5079787,38.2144375 C77.164412,38.2144375 78.575052,37.7461765 79.660512,36.8220588 C80.7566587,35.8948401 81.327632,34.6559642 81.327632,33.2279232 C81.327632,32.0123053 81.0467254,30.9470891 80.4375854,30.0803412 C79.829972,29.1934362 78.6544387,28.2832733 76.880452,27.2444162 L76.880452,27.2444162 Z M43.579272,34.1597936 C43.1060054,34.5257194 42.232752,34.7769058 40.959512,34.7520972 L37.7932054,34.7520972 L37.7932054,29.7330217 L40.5137254,29.7330217 C41.9426854,29.7330217 42.933492,29.9795565 43.4769854,30.3873467 C44.018952,30.8028896 44.3013854,31.3564299 44.3013854,32.302255 C44.3013854,33.2279232 44.0571187,33.7814635 43.579272,34.1597936 L43.579272,34.1597936 Z M37.7932054,21.4950397 L39.929012,21.4950397 C41.051112,21.4950397 41.7869654,21.69971 42.1884787,22.0330746 C42.383892,22.2082849 42.530452,22.3943488 42.6464787,22.685849 C42.7426587,22.9587429 42.8021987,23.3076128 42.8021987,23.7309083 C42.8021987,24.6596776 42.530452,25.2364759 41.9793254,25.661322 C41.4510987,26.06291 40.5137254,26.3202985 39.1702587,26.3202985 L37.7932054,26.3202985 L37.7932054,21.4950397 Z M44.545652,27.4537382 C45.0418187,27.1281262 45.4784454,26.7575488 45.7990454,26.29549 C46.3379587,25.5496836 46.5776454,24.6178132 46.5776454,23.5587991 C46.5776454,21.8578644 46.0097254,20.4623846 44.8677787,19.5041552 C43.7288854,18.5381731 42.173212,18.0978217 40.2114454,18.0978217 L34.181112,18.0978217 L34.181112,38.189629 L41.2449987,38.189629 C43.2754654,38.189629 44.9425854,37.6872563 46.203612,36.6639045 C47.4570054,35.6405527 48.1287387,34.2171633 48.1058387,32.4945211 C48.1058387,31.1610627 47.678372,29.9795565 46.8707654,29.041484 C46.258572,28.3468452 45.4784454,27.8181134 44.545652,27.4537382 L44.545652,27.4537382 Z M18.563312,19.5041552 L14.8977854,19.5041552 L14.8977854,38.189629 L27.7797987,38.189629 L27.7797987,35.0048341 L18.563312,35.0048341 L18.563312,19.5041552 Z M3.79128536,29.7578303 L12.4062654,29.7578303 L12.4062654,26.3559608 L3.79128536,26.3559608 L3.79128536,21.4702311 L12.650532,21.4702311 L12.650532,18.1164281 L0.142552025,18.1164281 L0.142552025,38.189629 L12.9375454,38.189629 L12.9375454,34.7908606 L3.79128536,34.7908606 L3.79128536,29.7578303 Z" transform="translate(48.8 7.254)"/>
  </g>
</svg>
