<svg xmlns="http://www.w3.org/2000/svg" width="55" height="55" viewBox="0 0 55 55">
  <g fill="none" fill-rule="evenodd">
    <rect width="55" height="55" fill="#2B3427"/>
    <g fill="#FFF" transform="translate(12 10)">
      <path d="M14.3665667 39.6636293C11.2410895 31.9902135 10.1390492 24.0457416 10.1390492 15.8497387 10.1390492 12.3168205 10.3640017 8.77701095 10.9456972 5.29233149L13.9280228 5.29233149C13.2077202 8.60702658 12.9839038 12.0055653 12.9839038 15.3903215 12.9839038 22.5032483 13.856447 30.066404 15.8935174 36.9186115 17.9283155 30.066404 18.8019949 22.5032483 18.8019949 15.3903215 18.8019949 12.0055653 18.5781785 8.60702658 17.8578758 5.29233149L20.8390653 5.29233149C21.4230331 8.77701095 21.6445772 12.3168205 21.6445772 15.8497387 21.6445772 24.0457416 20.5448092 31.9902135 17.419332 39.6636293L14.3665667 39.6636293zM5.25542003 13.7507764C4.98615864 13.5038397 4.56806499 13.5233649 4.32152608 13.7967181 4.07498716 14.0700714 4.0954374 14.4927352 4.36356267 14.741969 4.63509631 14.9912028 5.05318995 14.9705291 5.29972887 14.6983244 5.54513166 14.4238226 5.52581755 14.0011588 5.25542003 13.7507764M5.25542003 15.829065C4.98615864 15.5809797 4.56806499 15.6016534 4.32152608 15.8750067 4.07498716 16.1483599 4.0954374 16.5710237 4.36356267 16.8202576 4.63509631 17.0694914 5.05318995 17.0488176 5.29972887 16.7766129 5.54513166 16.5021112 5.52581755 16.0794473 5.25542003 15.829065M3.85514716 17.4506928C3.58474964 17.201459 3.16779212 17.2221328 2.92125321 17.495486 2.67357817 17.7699878 2.6940284 18.1915031 2.9632898 18.4407369 3.23368732 18.6899707 3.65064484 18.6704455 3.899456 18.3970923 4.14372267 18.123739 4.12554468 17.6999267 3.85514716 17.4506928M5.67260478 22.8718158C5.40334338 22.6237305 4.98524974 22.6432557 4.73871082 22.916609 4.49217191 23.1899622 4.51262214 23.6137746 4.78074741 23.8630084 5.05228105 24.1110937 5.4703747 24.0915684 5.71691361 23.8182152 5.9623164 23.544862 5.94300229 23.1210496 5.67260478 22.8718158M5.74361253 24.9759466C5.46185377 24.7416438 5.04489625 24.7829913 4.81312695 25.0689785 4.58022152 25.3549657 4.62112198 25.776481 4.90288074 26.0107838 5.18691175 26.2462351 5.60159702 26.203739 5.83450245 25.9189004 6.06513563 25.6329131 6.02537129 25.2113979 5.74361253 24.9759466M4.40332701 26.6620077C4.119296 26.4322991 3.70233848 26.4805379 3.47511367 26.7688222 3.24675274 27.0594036 3.29333383 27.4786217 3.57736484 27.7094789 3.86480422 27.940336 4.28176174 27.8920972 4.50898654 27.6026644 4.73621135 27.3132316 4.68963026 26.8928648 4.40332701 26.6620077M4.27017327 21.5763741C4.00091188 21.3282888 3.58281823 21.3489626 3.33627932 21.6223158 3.0897404 21.8968176 3.11019064 22.3183329 3.37945203 22.5675667 3.64984955 22.8168006 4.06794319 22.7961268 4.31448211 22.5227736 4.56102102 22.2494203 4.54057079 21.8267565 4.27017327 21.5763741M7.02618295 31.9064847C6.72738233 31.6917072 6.31610543 31.7629168 6.10365023 32.0649837 5.89005891 32.3647534 5.9604986 32.782823 6.25702698 32.9987491 6.5558276 33.2123781 6.96824062 33.1411684 7.18183194 32.8402502 7.39201488 32.5404805 7.32384744 32.1212623 7.02618295 31.9064847M7.1814911 34.233318C6.87700986 34.0277288 6.46686909 34.1115724 6.26236676 34.4182334 6.05900056 34.7248944 6.14080149 35.140667 6.44528273 35.3462561 6.74862784 35.5518453 7.15876862 35.4691502 7.36327095 35.1613407 7.56550102 34.8546797 7.48597234 34.4389072 7.1814911 34.233318M5.4640124 30.7767778C5.16634791 30.5620003 4.75393488 30.6343585 4.54147969 30.9352768 4.33016062 31.2373436 4.39946419 31.6542647 4.69826481 31.8678937 4.9959293 32.0826712 5.40834233 32.0114615 5.62193364 31.7105433 5.83211659 31.4084765 5.76394915 30.9904068 5.4640124 30.7767778M2.26423268 10.6119232C2.10403919 10.2799943 1.70980416 10.1410206 1.38032819 10.3029652 1.05085222 10.4637612.913381209 10.8646027 1.07243857 11.1965316 1.23263206 11.5296091 1.6268671 11.6685828 1.95747919 11.5066382 2.28695516 11.3446937 2.42442617 10.9438522 2.26423268 10.6119232M1.72048372 8.52904051C1.70116961 8.16035821 1.39214388 7.87666809 1.02631194 7.89389623.66048 7.91227292.37872124 8.22582516.398035349 8.59450746.416213333 8.96548685.726375194 9.24802843 1.08993488 9.23080028 1.45690295 9.21127505 1.73866171 8.89887136 1.72048372 8.52904051M1.80046685 6.14730689C1.86977042 5.78436731 1.63345662 5.43521023 1.27216918 5.36514911.913153984 5.29738507.566636155 5.53513348.499604837 5.89807306.431437395 6.26216119.66661507 6.61016972 1.02676639 6.68023085 1.38691771 6.74799488 1.73116329 6.51024648 1.80046685 6.14730689M2.53156267 4.01285458C2.71561476 3.69470817 2.60995522 3.28467832 2.29297662 3.09746581 1.97827026 2.91140185 1.57153786 3.01821635 1.38748577 3.33636276 1.20343367 3.65680625 1.31022933 4.06453902 1.62493569 4.25175153 1.93964205 4.43896404 2.34523833 4.33214954 2.53156267 4.01285458M3.60224595 12.2017365C3.33184843 11.9536512 2.91489091 11.9731764 2.66607975 12.2465296 2.41954084 12.5198829 2.43999107 12.9425467 2.71038859 13.1917805 2.98078611 13.4410144 3.39774363 13.4203406 3.64428254 13.1481359 3.89082146 12.8736341 3.87150735 12.4509703 3.60224595 12.2017365"/>
      <path d="M6.25168719 2.03448927C6.46187014 1.80248358 6.81747696 1.78640398 7.04811014 1.99773589 7.27760719 2.2090678 7.29464905 2.56971031 7.08332998 2.80286453 6.87428316 3.03487022 6.51754022 3.05209837 6.28690704 2.83961791 6.05740998 2.62713746 6.04036812 2.2676435 6.25168719 2.03448927M11.5755644 31.8196549L7.79454363 29.1263215C7.49233464 28.8816819 7.4434813 28.4360472 7.68547572 28.1316833L10.2133517 25.1408773C10.7359687 24.5608631 10.6950683 23.663851 10.1213256 23.1343727L6.95494797 20.2193706C6.67091696 19.9563542 6.65046673 19.5084225 6.91063913 19.2201382L9.79639417 16.0214459C10.3190112 15.4425802 10.2792469 14.5444196 9.70550425 14.0160898L5.5143427 10.1443514C4.94173619 9.61717015 4.95423355 8.75920853 5.42231665 8.14014385L9.78616905 2.25041535C10.2144878 1.68303511 10.188357 1.01917726 9.71004874.579285288 9.4714627.358765032 9.00110735.102639943 8.13992533.195671926 4.02374797.643603696 1.26296657 4.29137626 1.71855231 8.5099747 1.94577712 10.627888 2.6922106 11.389372 3.1034875 11.7672426L6.25964006 14.6799477C6.54594332 14.9441126 6.56639355 15.3908958 6.30508502 15.6791801L3.42046611 18.8778724C2.89898518 19.4578866 2.93874952 20.3548986 3.51135603 20.8832284L6.67659758 23.8005276C6.96290084 24.063544 6.98335107 24.5114758 6.72204254 24.7997601L4.18166921 28.0179775C3.69768037 28.630151 3.79538704 29.5225689 4.40094115 30.0129967L8.18764254 32.744232C8.49325991 32.985426 8.54665774 33.4299122 8.30693557 33.7377217L6.67546146 36.202495C6.22442022 36.8399363 6.36984409 37.7266115 6.99925681 38.1837316 7.62980564 38.6397032 8.5068934 38.4938382 8.95907076 37.8552483L11.8141504 33.812377C12.2913225 33.1944608 12.185663 32.30434 11.5755644 31.8196549M26.5510425 13.7507764C26.82144 13.5038397 27.2383975 13.5233649 27.4860726 13.7967181 27.7326115 14.0700714 27.7121612 14.4927352 27.4428998 14.741969 27.1725023 14.9912028 26.7544087 14.9705291 26.5067336 14.6983244 26.262467 14.4238226 26.280645 14.0011588 26.5510425 13.7507764M26.5510425 15.829065C26.82144 15.5809797 27.2383975 15.6016534 27.4860726 15.8750067 27.7326115 16.1483599 27.7121612 16.5710237 27.4428998 16.8202576 27.1725023 17.0694914 26.7544087 17.0488176 26.5067336 16.7766129 26.262467 16.5021112 26.280645 16.0794473 26.5510425 15.829065M27.9512017 17.4506928C28.2215993 17.201459 28.6385568 17.2221328 28.8862318 17.495486 29.1327707 17.7699878 29.1134566 18.1915031 28.8430591 18.4407369 28.5726616 18.6899707 28.1557041 18.6704455 27.908029 18.3970923 27.6626262 18.123739 27.6819403 17.6999267 27.9512017 17.4506928M26.1338577 22.8718158C26.4042553 22.6237305 26.8212128 22.6432557 27.0677517 22.916609 27.3154267 23.1899622 27.2949765 23.6137746 27.0257151 23.8630084 26.7553176 24.1110937 26.3372239 24.0915684 26.0895489 23.8182152 25.8452822 23.544862 25.8634602 23.1210496 26.1338577 22.8718158M26.06285 24.9759466C26.3457449 24.7416438 26.7615663 24.7829913 26.9944717 25.0689785 27.226241 25.3549657 27.1864767 25.776481 26.9035818 26.0107838 26.6206869 26.2462351 26.2048655 26.203739 25.9719601 25.9189004 25.7413269 25.6329131 25.7810912 25.2113979 26.06285 24.9759466M27.4031355 26.6620077C27.6883026 26.4322991 28.104124 26.4805379 28.332485 26.7688222 28.5608459 27.0594036 28.5142648 27.4786217 28.2290977 27.7094789 27.9427944 27.940336 27.5258369 27.8920972 27.2986121 27.6026644 27.0702512 27.3132316 27.1168322 26.8928648 27.4031355 26.6620077M27.5362892 21.5763741C27.8066868 21.3282888 28.2236443 21.3489626 28.4701832 21.6223158 28.7167221 21.8968176 28.697408 22.3183329 28.4270105 22.5675667 28.156613 22.8168006 27.7385193 22.7961268 27.4919804 22.5227736 27.2477137 22.2494203 27.2658917 21.8267565 27.5362892 21.5763741M24.7814157 31.9064847C25.0790802 31.6917072 25.4903571 31.7629168 25.7039484 32.0649837 25.9164036 32.3647534 25.8471 32.782823 25.5494355 32.9987491 25.2506349 33.2123781 24.8382219 33.1411684 24.6246306 32.8402502 24.4155838 32.5404805 24.4826151 32.1212623 24.7814157 31.9064847M24.6249714 34.233318C24.9305888 34.0277288 25.3395934 34.1115724 25.5440958 34.4182334 25.747462 34.7248944 25.665661 35.140667 25.3611798 35.3462561 25.0578347 35.5518453 24.6476939 35.4691502 24.4443277 35.1613407 24.2409615 34.8546797 24.3204902 34.4389072 24.6249714 34.233318M26.3424501 30.7767778C26.6401146 30.5620003 27.0525276 30.6343585 27.2649828 30.9352768 27.4763019 31.2373436 27.4069983 31.6542647 27.1081977 31.8678937 26.8105332 32.0826712 26.3981202 32.0114615 26.1845289 31.7105433 25.975482 31.4084765 26.0436495 30.9904068 26.3424501 30.7767778M29.5422298 10.6119232C29.7024233 10.2799943 30.0977945 10.1410206 30.4272704 10.3029652 30.7556103 10.4637612 30.8942174 10.8646027 30.7340239 11.1965316 30.5738304 11.5296091 30.1795954 11.6685828 29.8501194 11.5066382 29.5195073 11.3446937 29.3820363 10.9438522 29.5422298 10.6119232M30.0858652 8.52904051C30.1051793 8.16035821 30.414205 7.87666809 30.780037 7.89389623 31.147005 7.91227292 31.4287638 8.22582516 31.4094497 8.59450746 31.3912717 8.96548685 31.0811098 9.24802843 30.716414 9.23080028 30.3505821 9.21127505 30.0688233 8.89887136 30.0858652 8.52904051M30.0059957 6.14730689C29.9366921 5.78436731 30.174142 5.43521023 30.5342933 5.36514911 30.8933085 5.29738507 31.2398264 5.53513348 31.3079938 5.89807306 31.3761612 6.26216119 31.1398474 6.61016972 30.7808322 6.68023085 30.4206809 6.74799488 30.0752992 6.51024648 30.0059957 6.14730689M29.2759224 4.01285458C29.0918703 3.69470817 29.1986659 3.28467832 29.5133723 3.09746581 29.8280786 2.91140185 30.234811 3.01821635 30.4188631 3.33636276 30.6040513 3.65680625 30.4972557 4.06453902 30.1814132 4.25175153 29.8667069 4.43896404 29.4611106 4.33214954 29.2759224 4.01285458M28.2053527 12.2017365C28.4757502 11.9536512 28.8938438 11.9731764 29.1403828 12.2465296 29.3869217 12.5198829 29.3664714 12.9425467 29.0960739 13.1917805 28.8268125 13.4410144 28.4087189 13.4203406 28.16218 13.1481359 27.9156411 12.8736341 27.9360913 12.4509703 28.2053527 12.2017365"/>
      <path d="M25.5192146,2.83961791 C25.2885815,3.05209837 24.9318385,3.03487022 24.7227917,2.80286453 C24.5114726,2.56971031 24.5296506,2.2090678 24.7591477,1.99773589 C24.9886447,1.78640398 25.3465238,1.80248358 25.5555706,2.03448927 C25.7657536,2.2676435 25.7487117,2.62713746 25.5192146,2.83961791 M23.6673325,0.195671926 C22.8050143,0.102639943 22.334659,0.358765032 22.0972091,0.579285288 C21.6177647,1.01917726 21.5916339,1.68303511 22.0210887,2.25041535 L26.3849411,8.14014385 C26.8518881,8.75920853 26.8666577,9.61717015 26.2940512,10.1443514 L22.1006174,14.0160898 C21.5268748,14.5444196 21.4859743,15.4425802 22.0085914,16.0225945 L24.8966187,19.2201382 C25.1579272,19.5084225 25.1363408,19.9575028 24.8511737,20.2193706 L21.684796,23.1343727 C21.1110534,23.663851 21.0701529,24.5608631 21.5939061,25.1408773 L24.1217821,28.1316833 C24.3626404,28.4360472 24.313787,28.8816819 24.011578,29.1263215 L20.2316934,31.8196549 C19.6215948,32.30434 19.5147991,33.1944608 19.9931073,33.812377 L22.8470509,37.8563969 C23.3003644,38.4938382 24.176316,38.6397032 24.8068649,38.1837316 C25.4374137,37.7266115 25.5839737,36.8399363 25.1306602,36.202495 L23.5003222,33.7377217 C23.2606001,33.4299122 23.3139979,32.985426 23.6196153,32.744232 L27.4051805,30.0129967 C28.0107346,29.5225689 28.1084413,28.630151 27.6255886,28.0179775 L25.0840791,24.7997601 C24.8250429,24.5114758 24.844357,24.063544 25.1306602,23.8005276 L28.2947656,20.8832284 C28.8673722,20.3548986 28.9071365,19.4578866 28.3856556,18.8778724 L25.5010367,15.6791801 C25.2408642,15.3908958 25.2613145,14.9441126 25.5464816,14.6810962 L28.7037703,11.7672426 C29.1139111,11.389372 29.8614807,10.627888 30.0898416,8.5099747 C30.5442912,4.29137626 27.7823737,0.643603696 23.6673325,0.195671926"/>
    </g>
  </g>
</svg>
